<svg width="384" height="280" viewBox="0 0 384 280" fill="none" xmlns="http://www.w3.org/2000/svg">
<g clip-path="url(#clip0_219_16544)">
<path d="M158.29 128.451C162.136 133.416 164.939 137.917 166.704 141.911C169.175 147.505 168.181 153.767 167.862 159.874C167.33 170.051 169.58 183.987 188.087 183.987C218.89 183.987 239.158 90.6662 204.553 65.9086C181.745 49.591 165.499 58.436 154.095 76.7638C141.871 96.4101 149.508 117.111 158.29 128.451Z" fill="#212529"/>
<path fill-rule="evenodd" clip-rule="evenodd" d="M166.652 80.6356C172.385 74.3614 181.295 70.8973 192.326 74.324C204.374 78.0667 210.343 90.0084 212.244 103.449C214.143 116.881 211.958 131.703 207.804 141.031C207.742 141.169 207.804 141.332 207.943 141.394C208.082 141.456 208.244 141.393 208.306 141.254C212.507 131.824 214.7 116.896 212.788 103.372C210.877 89.8568 204.845 77.6371 192.489 73.7987C181.245 70.306 172.116 73.84 166.246 80.2646C160.387 86.6761 157.775 95.9658 159.53 104C160.371 107.847 161.69 110.33 163.301 111.959C164.914 113.59 166.795 114.339 168.711 114.764C169.667 114.976 170.635 115.108 171.581 115.227C171.718 115.244 171.854 115.261 171.99 115.278C172.797 115.379 173.585 115.477 174.346 115.615C176.122 115.938 177.706 116.473 178.948 117.72C180.076 118.854 180.623 120.615 180.645 122.512C180.668 124.406 180.165 126.393 179.244 127.94C178.323 129.487 177.005 130.561 175.402 130.713C173.798 130.865 171.821 130.104 169.564 127.784C169.458 127.675 169.284 127.673 169.175 127.779C169.066 127.885 169.064 128.059 169.17 128.168C171.488 130.55 173.619 131.435 175.454 131.26C177.289 131.086 178.74 129.861 179.717 128.221C180.694 126.58 181.219 124.492 181.195 122.506C181.172 120.524 180.601 118.602 179.338 117.332C177.979 115.967 176.262 115.404 174.444 115.074C173.667 114.933 172.862 114.832 172.055 114.732C171.92 114.715 171.785 114.698 171.65 114.681C170.705 114.562 169.759 114.433 168.83 114.227C166.976 113.816 165.205 113.102 163.692 111.572C162.176 110.04 160.893 107.663 160.067 103.883C158.352 96.033 160.907 86.9231 166.652 80.6356Z" fill="white"/>
<path fill-rule="evenodd" clip-rule="evenodd" d="M173.841 102.974C171.138 104.815 168.875 108.31 167.643 113.703C167.609 113.851 167.701 113.998 167.849 114.032C167.998 114.066 168.145 113.973 168.179 113.825C169.392 108.517 171.599 105.166 174.151 103.428C176.695 101.696 179.615 101.542 182.329 102.692C187.769 104.996 192.41 112.579 191.216 123.222C190.843 126.543 189.409 128.507 188.045 130.159C187.914 130.317 187.783 130.473 187.653 130.628C186.441 132.074 185.321 133.409 185.321 135.339C185.321 135.574 185.433 135.796 185.576 135.998C185.723 136.205 185.928 136.424 186.169 136.658C186.41 136.893 186.697 137.152 187.012 137.436L187.024 137.447C187.337 137.729 187.679 138.038 188.04 138.379C189.501 139.76 191.259 141.667 192.492 144.39C193.07 145.667 192.825 147.699 191.913 149.675C191.007 151.64 189.479 153.466 187.612 154.335C185.767 155.194 183.558 155.137 181.206 153.285C178.836 151.417 176.319 147.719 173.944 141.286C173.892 141.144 173.733 141.071 173.591 141.123C173.448 141.176 173.376 141.334 173.428 141.477C175.817 147.947 178.378 151.756 180.866 153.717C183.372 155.691 185.802 155.784 187.844 154.834C189.863 153.893 191.47 151.95 192.412 149.906C193.35 147.873 193.669 145.656 192.993 144.164C191.719 141.348 189.903 139.383 188.418 137.979C188.052 137.634 187.706 137.321 187.394 137.04L187.381 137.028C187.064 136.742 186.785 136.49 186.552 136.264C186.318 136.037 186.142 135.845 186.025 135.68C185.905 135.511 185.871 135.403 185.871 135.339C185.871 133.62 186.855 132.443 188.087 130.968C188.212 130.818 188.34 130.666 188.469 130.51C189.859 128.826 191.372 126.761 191.762 123.284C192.975 112.475 188.272 104.612 182.543 102.185C179.672 100.969 176.553 101.127 173.841 102.974Z" fill="white"/>
<path d="M151.507 162.263L152.377 166.048L165.435 203.294L129.506 227.859L73.4887 189.917L81.671 170.254L142.327 149.108L151.507 162.263Z" fill="#212529"/>
<path d="M81.6991 172.289C120.352 175.169 140.738 159.127 146.099 150.746L132.44 139.152L94.6338 151.196L81.6991 172.289Z" fill="white"/>
<path d="M140.098 202.039C143.158 200.971 152.688 190.325 157.07 185.136L161.06 199.237L146.953 216.831L112.114 210.668C120.167 208.236 137.037 203.106 140.098 202.039Z" fill="white"/>
<path fill-rule="evenodd" clip-rule="evenodd" d="M73.3169 189.905C75.1248 179.002 77.8246 157.239 77.8068 152.065C77.7842 145.485 87.4513 134.619 101.395 137.254C110.096 138.898 115.492 135.68 120.435 132.731C123.414 130.955 126.228 129.276 129.503 128.818C137.042 127.762 154.128 131.054 152.322 164.715C152.671 165.015 152.92 165.605 153.474 166.925C154.662 169.751 157.255 175.919 165.248 189.729C180.892 216.759 166.312 227.294 141.054 234.737C115.796 242.18 90.4176 212.815 87.7094 207.675C85.07 202.666 77.1996 194.102 73.3893 190.238C73.3667 190.215 73.3505 190.19 73.3402 190.163C73.3091 190.084 73.3029 189.99 73.3169 189.905ZM73.8543 189.933C77.0432 187.19 80.4408 183.312 84.0316 178.29C85.2053 176.649 86.2758 174.117 87.4648 171.304C90.0024 165.301 93.0795 158.022 98.8505 155.405C101.518 154.196 104.265 154.765 107.111 155.353C111.415 156.244 115.943 157.181 120.757 152.084C128.752 143.618 137.031 145.729 139.335 149.696C141.004 152.569 148.021 160.758 151.903 164.764C150.57 166.661 149.646 177.081 156.699 192.71C165.912 213.123 120.443 218.298 105.128 205.237C99.6978 200.606 80.7279 190.908 73.8543 189.933Z" fill="#D898FA"/>
<path fill-rule="evenodd" clip-rule="evenodd" d="M84.532 141.421C88.6336 138.254 94.4579 136.223 101.344 137.524C110.148 139.188 115.621 135.924 120.568 132.973L120.577 132.967C123.564 131.185 126.331 129.539 129.541 129.09C133.254 128.57 139.314 129.122 144.224 133.944C149.117 138.748 152.922 147.847 152.057 164.528C150.125 162.531 147.427 159.511 145 156.629C142.548 153.718 140.393 150.97 139.573 149.559C137.139 145.369 128.623 143.354 120.556 151.896C118.19 154.402 115.911 155.409 113.707 155.691C111.489 155.976 109.326 155.531 107.167 155.084L107.126 155.076C104.311 154.493 101.485 153.909 98.7364 155.155C95.7806 156.495 93.5327 159.021 91.7116 161.939C89.8922 164.855 88.4816 168.192 87.2155 171.187L87.2113 171.197C86.0174 174.021 84.9595 176.52 83.8077 178.13C80.2245 183.141 76.8413 187 73.6746 189.725C73.6494 189.747 73.6288 189.772 73.6133 189.8C74.5138 184.344 75.6289 176.255 76.5197 168.87C77.4177 161.426 78.0909 154.672 78.082 152.065C78.0711 148.889 80.4157 144.6 84.532 141.421ZM73.585 189.989C73.5865 189.996 73.5883 190.003 73.5904 190.01C73.5986 190.038 73.6109 190.064 73.6268 190.087C73.6154 190.076 73.6042 190.064 73.5929 190.053C73.5878 190.036 73.5847 190.013 73.585 189.989ZM73.696 190.158C73.731 190.182 73.7719 190.199 73.816 190.205C75.5004 190.444 77.9495 191.223 80.7761 192.34C83.5969 193.455 86.7749 194.9 89.9101 196.46C96.1892 199.584 102.262 203.154 104.95 205.446C108.831 208.756 114.6 210.894 120.898 211.931C127.202 212.969 134.065 212.908 140.161 211.796C146.25 210.686 151.612 208.519 154.875 205.311C156.51 203.704 157.623 201.83 158.027 199.696C158.431 197.561 158.121 195.19 156.95 192.597C153.435 184.807 151.911 178.324 151.43 173.56C151.19 171.178 151.21 169.229 151.371 167.763C151.535 166.283 151.837 165.336 152.128 164.922C152.13 164.92 152.132 164.917 152.133 164.914C152.136 164.918 152.14 164.921 152.143 164.924C152.275 165.037 152.405 165.219 152.575 165.56C152.745 165.9 152.942 166.368 153.221 167.031C154.413 169.867 157.011 176.046 165.01 189.866C172.81 203.343 173.02 212.607 168.263 219.421C163.477 226.277 153.607 230.751 140.976 234.473C128.47 238.158 115.903 232.738 106.086 225.701C101.183 222.187 96.9805 218.279 93.8357 214.93C90.6847 211.575 88.6119 208.798 87.9529 207.547C86.6175 205.013 83.9718 201.599 81.1977 198.349C78.4722 195.155 75.6062 192.101 73.696 190.158ZM84.1951 140.986C79.9975 144.228 77.52 148.661 77.5317 152.066C77.5405 154.632 76.8727 161.347 75.9733 168.804C75.0749 176.252 73.9485 184.414 73.0455 189.86C73.0247 189.985 73.032 190.13 73.084 190.263C73.1082 190.325 73.1451 190.382 73.1934 190.431C75.0947 192.359 78.0103 195.461 80.7792 198.705C83.5527 201.955 86.1619 205.328 87.466 207.803C88.161 209.122 90.2762 211.943 93.4346 215.306C96.5991 218.676 100.828 222.609 105.765 226.148C115.629 233.218 128.38 238.758 141.132 235.001C153.759 231.28 163.808 226.765 168.715 219.736C173.652 212.664 173.33 203.145 165.486 189.592C157.502 175.796 154.913 169.638 153.729 166.822L153.724 166.808C153.45 166.157 153.246 165.673 153.067 165.315C152.917 165.014 152.774 164.781 152.604 164.604C153.483 147.812 149.664 138.515 144.61 133.552C139.543 128.576 133.291 128.01 129.464 128.546C126.134 129.012 123.279 130.715 120.319 132.481L120.294 132.495C115.356 135.441 110.039 138.608 101.446 136.984C94.3886 135.65 88.4073 137.734 84.1951 140.986ZM98.9645 155.656C101.537 154.489 104.193 155.03 107.056 155.623L107.076 155.627C109.215 156.069 111.461 156.534 113.778 156.237C116.118 155.936 118.51 154.864 120.957 152.273C128.882 143.881 136.922 146.09 139.097 149.834C139.946 151.295 142.134 154.078 144.579 156.982C146.968 159.819 149.621 162.792 151.556 164.801C151.235 165.38 150.971 166.372 150.824 167.703C150.658 169.213 150.639 171.201 150.883 173.615C151.37 178.442 152.911 184.983 156.449 192.822C157.581 195.332 157.865 197.588 157.486 199.593C157.107 201.598 156.06 203.375 154.488 204.919C151.338 208.016 146.103 210.154 140.062 211.256C134.028 212.356 127.229 212.416 120.987 211.389C114.741 210.361 109.083 208.248 105.307 205.028C102.564 202.689 96.4368 199.094 90.1549 195.968C87.0095 194.403 83.8168 192.951 80.9779 191.829C78.4442 190.827 76.1771 190.082 74.4728 189.758C77.5555 187.023 80.8206 183.254 84.2556 178.45C85.447 176.784 86.5268 174.23 87.706 171.44L87.7183 171.411C88.9887 168.406 90.3843 165.106 92.1787 162.23C93.9732 159.355 96.1494 156.932 98.9645 155.656Z" fill="#212529"/>
<path d="M279.26 63.9004C260.943 63.9004 244.295 79.6326 237.256 88.6944C236.666 89.4547 236.848 90.5374 237.637 91.0892C246.531 97.312 261.617 106.831 279.26 106.831C296.948 106.831 310.597 97.2644 318.637 91.0427C319.339 90.4992 319.513 89.5195 319.014 88.7852C312.86 79.7381 297.639 63.9004 279.26 63.9004Z" fill="white"/>
<path fill-rule="evenodd" clip-rule="evenodd" d="M254.185 73.1254C246.88 78.1728 240.978 84.3506 237.474 88.8631C236.983 89.4948 237.13 90.399 237.794 90.8639C246.684 97.0839 261.709 106.556 279.26 106.556C296.85 106.556 310.435 97.042 318.469 90.8252C319.06 90.3673 319.201 89.5494 318.786 88.9399C315.724 84.4376 310.401 78.2402 303.558 73.1711C296.714 68.1013 288.37 64.1754 279.26 64.1754C270.179 64.1754 261.492 68.0767 254.185 73.1254ZM253.872 72.6729C261.229 67.5901 270.025 63.6254 279.26 63.6254C288.529 63.6254 296.986 67.6183 303.885 72.7291C310.786 77.8406 316.15 84.0857 319.241 88.6306C319.825 89.4895 319.618 90.6312 318.805 91.2601C310.759 97.4868 297.046 107.106 279.26 107.106C261.525 107.106 246.377 97.5401 237.479 91.3146C236.566 90.6757 236.349 89.4145 237.039 88.5257C240.573 83.9763 246.514 77.7572 253.872 72.6729Z" fill="#212529"/>
<path d="M277.887 97.5447C289.774 97.5447 299.41 87.9343 299.41 76.0793C299.41 73.7566 299.04 71.52 298.356 69.425C292.648 66.1441 286.178 63.9004 279.26 63.9004C271.299 63.9004 263.653 66.8722 256.975 70.9765C256.575 72.612 256.363 74.321 256.363 76.0793C256.363 87.9343 265.999 97.5447 277.887 97.5447Z" fill="#212529"/>
<path fill-rule="evenodd" clip-rule="evenodd" d="M279.108 36.6794C279.26 36.6794 279.383 36.8025 279.383 36.9544V58.2676C279.383 58.4195 279.26 58.5426 279.108 58.5426C278.956 58.5426 278.833 58.4195 278.833 58.2676V36.9544C278.833 36.8025 278.956 36.6794 279.108 36.6794Z" fill="#212529"/>
<path fill-rule="evenodd" clip-rule="evenodd" d="M226.859 61.1946C226.966 61.0874 227.141 61.0874 227.248 61.1946L242.36 76.2653C242.468 76.3725 242.468 76.5464 242.36 76.6537C242.252 76.7609 242.078 76.7609 241.971 76.6537L226.859 61.583C226.751 61.4758 226.751 61.3019 226.859 61.1946Z" fill="#212529"/>
<path fill-rule="evenodd" clip-rule="evenodd" d="M330.898 61.1946C330.79 61.0874 330.616 61.0874 330.508 61.1946L315.397 76.2653C315.289 76.3725 315.289 76.5464 315.397 76.6537C315.504 76.7609 315.679 76.7609 315.786 76.6537L330.898 61.583C331.005 61.4758 331.005 61.3019 330.898 61.1946Z" fill="#212529"/>
<path d="M271.336 220.866C271.336 243.378 253.035 261.627 230.46 261.627C207.885 261.627 189.584 243.378 189.584 220.866C189.584 198.354 207.885 180.105 230.46 180.105C253.035 180.105 271.336 198.354 271.336 220.866Z" fill="#212529"/>
<path fill-rule="evenodd" clip-rule="evenodd" d="M271.886 220.866C271.886 243.683 253.337 262.177 230.46 262.177C207.582 262.177 189.034 243.683 189.034 220.866C189.034 198.049 207.582 179.555 230.46 179.555C253.337 179.555 271.886 198.049 271.886 220.866ZM230.46 261.627C253.035 261.627 271.336 243.378 271.336 220.866C271.336 198.354 253.035 180.105 230.46 180.105C207.885 180.105 189.584 198.354 189.584 220.866C189.584 243.378 207.885 261.627 230.46 261.627Z" fill="#212529"/>
<mask id="mask0_219_16544" style="mask-type:alpha" maskUnits="userSpaceOnUse" x="189" y="180" width="83" height="82">
<path d="M271.336 220.866C271.336 243.378 253.035 261.627 230.46 261.627C207.885 261.627 189.584 243.378 189.584 220.866C189.584 198.354 207.885 180.105 230.46 180.105C253.035 180.105 271.336 198.354 271.336 220.866Z" fill="black"/>
</mask>
<g mask="url(#mask0_219_16544)">
<path d="M280.419 221.063C280.419 248.686 257.963 271.079 230.262 271.079C202.561 271.079 180.105 248.686 180.105 221.063C180.105 193.44 202.561 171.047 230.262 171.047C257.963 171.047 280.419 193.44 280.419 221.063Z" fill="#212529"/>
<path d="M280.419 221.063C280.419 248.686 257.963 271.079 230.262 271.079C202.561 271.079 180.105 248.686 180.105 221.063C180.105 193.44 202.561 171.047 230.262 171.047C257.963 171.047 280.419 193.44 280.419 221.063Z" fill="#212529"/>
<path d="M242.924 206.893C252.813 206.893 258.951 203.333 261.871 200.502C262.733 199.667 264.232 199.608 264.977 200.549L274.642 212.758C275.541 213.893 274.733 215.635 273.297 215.824C268.179 216.499 260.812 218.635 256.342 223.843C249.238 232.122 237.99 221.347 229.9 221.347C221.809 221.347 220.625 229.362 213.916 236.064C207.206 242.765 200.102 225.814 196.156 219.376C192.209 212.937 207.206 215.565 216.481 215.565C225.756 215.565 220.625 211.36 211.153 210.178C201.681 208.995 198.524 204.002 203.852 201.768C209.18 199.534 227.532 206.893 242.924 206.893Z" fill="#D898FA"/>
<path d="M220.389 249.813C217.525 249.813 212.756 252.83 209.446 255.298C208.392 256.083 208.646 257.685 209.868 258.166L231.079 266.524C231.445 266.669 231.85 266.684 232.226 266.568L260.096 257.949C261.343 257.563 261.714 256.007 260.705 255.178C257.732 252.733 253.214 249.813 249.417 249.813C243.295 249.813 236.976 253.16 231.645 253.16C226.313 253.16 224.931 249.813 220.389 249.813Z" fill="#D898FA"/>
<path d="M241.545 233.871C245.336 236.846 242.248 243.268 239.084 244.924C238.86 245.042 238.605 245.092 238.356 245.044C236.185 244.627 230.271 241.232 226.98 239.654C222.593 237.551 229.261 238.077 231.894 236.675C234.526 235.273 236.631 230.016 241.545 233.871Z" fill="#D898FA"/>
<path d="M230.065 191.132C223.01 193.016 212.808 191.269 206.027 189.485C204.482 189.079 204.395 187.029 205.87 186.416L229.529 176.586C229.877 176.441 230.256 176.413 230.621 176.507C241.147 179.235 260.039 184.226 255.538 183.452C249.812 182.468 241.123 188.178 230.065 191.132Z" fill="#D898FA"/>
</g>
<path d="M230.46 146.137C230.46 132.201 241.757 120.904 255.693 120.904H329.314C343.25 120.904 354.547 132.201 354.547 146.137V146.137C354.547 160.073 343.25 171.37 329.314 171.37H255.693C241.757 171.37 230.46 160.073 230.46 146.137V146.137Z" fill="#212529"/>
<path d="M285.92 157.847L286.866 153.554C288.709 153.554 290.407 153.542 291.959 153.518C293.511 153.469 294.869 153.409 296.033 153.336C297.222 153.263 298.204 153.154 298.98 153.009C299.78 152.839 300.326 152.621 300.617 152.354C301.102 151.966 301.442 151.359 301.636 150.535C301.83 149.686 301.927 148.473 301.927 146.897C301.927 146.048 301.866 145.284 301.745 144.605C301.624 143.926 301.43 143.344 301.163 142.859C300.92 142.349 300.629 141.973 300.29 141.731C299.95 141.464 299.562 141.331 299.126 141.331C298.689 141.331 298.277 141.488 297.889 141.804C297.501 142.119 297.185 142.543 296.943 143.077C296.725 143.586 296.615 144.132 296.615 144.714C296.615 145.102 296.7 145.442 296.87 145.733C297.064 146.024 297.367 146.254 297.78 146.424C298.192 146.569 298.713 146.642 299.344 146.642C299.95 146.642 300.569 146.569 301.199 146.424C301.854 146.278 302.436 146.084 302.945 145.842L303.091 149.516C302.703 149.783 302.254 150.013 301.745 150.207C301.26 150.401 300.738 150.547 300.181 150.644C299.623 150.741 299.065 150.789 298.507 150.789C297.222 150.789 296.13 150.62 295.233 150.28C294.336 149.941 293.632 149.395 293.123 148.643C292.638 147.867 292.395 146.86 292.395 145.624C292.395 144.605 292.565 143.598 292.905 142.604C293.244 141.585 293.729 140.664 294.36 139.839C294.99 138.99 295.73 138.323 296.579 137.838C297.428 137.329 298.374 137.074 299.417 137.074C300.945 137.074 302.206 137.535 303.2 138.457C304.194 139.354 304.934 140.567 305.419 142.095C305.904 143.623 306.147 145.284 306.147 147.079C306.147 148.243 306.05 149.359 305.856 150.426C305.686 151.493 305.431 152.439 305.092 153.263C304.752 154.088 304.328 154.767 303.819 155.301C303.358 155.81 302.594 156.234 301.527 156.574C300.484 156.913 299.186 157.168 297.634 157.338C296.082 157.532 294.311 157.665 292.323 157.738C290.358 157.811 288.224 157.847 285.92 157.847ZM285.92 157.847C283.47 157.847 281.372 157.665 279.626 157.301C277.904 156.962 276.485 156.453 275.37 155.773C274.254 155.094 273.429 154.27 272.896 153.3C272.362 152.33 272.096 151.214 272.096 149.953C272.096 149.249 272.156 148.534 272.277 147.806C272.399 147.054 272.556 146.327 272.75 145.624C272.944 144.896 273.126 144.229 273.296 143.623L277.152 144.569C277.055 144.981 276.946 145.442 276.825 145.951C276.704 146.436 276.594 146.921 276.497 147.406C276.425 147.891 276.388 148.34 276.388 148.752C276.388 149.771 276.704 150.644 277.334 151.372C277.989 152.099 279.08 152.645 280.608 153.009C282.136 153.372 284.222 153.554 286.866 153.554L287.593 156.683L285.92 157.847ZM299.089 133.546C298.434 133.546 297.877 133.327 297.416 132.891C296.955 132.43 296.725 131.872 296.725 131.217C296.725 130.562 296.955 130.005 297.416 129.544C297.877 129.059 298.434 128.816 299.089 128.816C299.72 128.816 300.265 129.059 300.726 129.544C301.187 130.005 301.417 130.562 301.417 131.217C301.417 131.872 301.187 132.43 300.726 132.891C300.265 133.327 299.72 133.546 299.089 133.546Z" fill="white"/>
<path d="M182.55 47.0718C143.053 45.8138 129.465 81.3323 138.762 113.336C138.965 114.033 138.713 114.803 138.124 115.226C115.576 131.397 96.2419 109.391 88.4924 94.4759C77.5036 73.3258 77.9269 39.5583 101.814 26.382C131.918 9.77654 174.059 23.4791 184.198 44.7736C184.734 45.8993 183.796 47.1115 182.55 47.0718Z" fill="#D898FA"/>
<path fill-rule="evenodd" clip-rule="evenodd" d="M150.561 21.099C166.169 25.1215 179.328 33.9058 184.446 44.6554C185.087 46.0017 183.954 47.3916 182.542 47.3466C162.89 46.7207 149.717 55.2368 142.598 67.8658C135.47 80.5109 134.394 97.3123 139.026 113.26C139.26 114.064 138.972 114.956 138.284 115.449C132.606 119.522 127.114 121.201 121.945 121.178C116.779 121.156 111.957 119.434 107.614 116.742C98.9357 111.362 92.1357 102.085 88.2483 94.6027C82.7286 83.9788 80.0763 70.1924 81.8022 57.402C83.5287 44.6078 89.6419 32.7822 101.681 26.1412C116.808 17.7973 134.944 17.0739 150.561 21.099ZM150.424 21.6316C134.91 17.6332 116.924 18.3612 101.947 26.6228C90.0991 33.1582 84.0571 44.8044 82.3473 57.4756C80.6369 70.1506 83.2674 83.823 88.7364 94.3491C92.5985 101.783 99.3406 110.966 107.904 116.275C112.182 118.927 116.905 120.607 121.948 120.628C126.987 120.65 132.368 119.016 137.963 115.002C138.455 114.65 138.669 114.002 138.498 113.413C133.834 97.3563 134.903 80.3965 142.119 67.5957C149.344 54.779 162.713 46.1648 182.559 46.7969C183.639 46.8313 184.38 45.7968 183.95 44.8918C178.929 34.3469 165.948 25.6327 150.424 21.6316Z" fill="#212529"/>
<path d="M124.117 64.1457C124.1 64.5383 124.139 64.9161 124.234 65.2793C124.314 65.5867 124.425 65.841 124.567 66.0425C124.702 66.216 124.83 66.3616 124.95 66.4793C125.091 66.5616 125.182 66.627 125.225 66.6756C125.577 66.8815 125.789 67.1241 125.862 67.4035C125.877 67.4594 125.885 67.6064 125.888 67.8446C125.878 68.2651 125.7 68.6107 125.352 68.8812C125.026 69.1164 124.472 69.3369 123.69 69.5427L113.764 72.1553C113.177 72.3097 112.691 72.3332 112.305 72.2258C111.947 72.1111 111.724 71.8861 111.637 71.5508C111.593 71.3832 111.588 71.1906 111.62 70.9729C111.646 70.7274 111.714 70.5304 111.824 70.3819C111.955 70.1981 112.139 69.9856 112.374 69.7445C112.755 69.3755 113.045 69.0005 113.244 68.6197C113.444 68.2389 113.55 67.6736 113.563 66.9237L113.712 63.033L107.178 64.7527L106.671 67.4391C106.465 68.5977 106.439 69.4704 106.592 70.0571C106.68 70.3924 106.809 70.6571 106.979 70.8512C107.141 71.0173 107.363 71.1828 107.645 71.3475C107.899 71.5196 108.075 71.6821 108.175 71.835C108.295 71.9526 108.36 72.1445 108.37 72.4107C108.368 72.8591 108.207 73.215 107.887 73.4781C107.589 73.706 107.063 73.9192 106.309 74.1176L100.068 75.7601C99.4259 75.9292 98.9082 75.946 98.5148 75.8107C98.1142 75.6475 97.8629 75.3703 97.7609 74.9791C97.6443 74.5321 97.7207 74.1388 97.9902 73.7992C98.2245 73.4389 98.6227 73.0207 99.1847 72.5443C99.9131 71.9048 100.478 71.3233 100.878 70.7998C101.271 70.2485 101.555 69.5618 101.728 68.7399L105.151 51.3139C105.669 48.6099 106.557 46.5249 107.816 45.0591C109.095 43.5579 111.006 42.473 113.547 41.8042C116.395 41.0546 118.753 41.0607 120.623 41.8225C122.485 42.5564 123.686 43.9571 124.225 46.0245C124.451 46.8906 124.545 47.8214 124.506 48.8168L124.117 64.1457ZM113.876 58.5116L114.172 50.5516C114.196 50.187 114.161 49.8231 114.066 49.4599C113.928 48.929 113.672 48.5783 113.299 48.4077C112.947 48.2018 112.506 48.1687 111.975 48.3083C111.305 48.4847 110.784 48.8309 110.411 49.347C110.039 49.8631 109.746 50.6865 109.534 51.8172L108.012 60.0549L113.876 58.5116Z" fill="white"/>
<path fill-rule="evenodd" clip-rule="evenodd" d="M307.557 232.755V180.105H308.107V232.755H307.557Z" fill="#212529"/>
<path fill-rule="evenodd" clip-rule="evenodd" d="M329.729 206.942L285.934 206.826L285.935 206.276L329.731 206.392L329.729 206.942Z" fill="#212529"/>
<path fill-rule="evenodd" clip-rule="evenodd" d="M316.708 215.79L298.392 197.525L298.781 197.137L317.097 215.402L316.708 215.79Z" fill="#212529"/>
<path fill-rule="evenodd" clip-rule="evenodd" d="M298.781 215.79L317.097 197.525L316.708 197.137L298.392 215.402L298.781 215.79Z" fill="#212529"/>
<path fill-rule="evenodd" clip-rule="evenodd" d="M50.6228 168.216V115.566H51.1728V168.216H50.6228Z" fill="#212529"/>
<path fill-rule="evenodd" clip-rule="evenodd" d="M72.7949 142.403L28.9993 142.287L29.0007 141.737L72.7964 141.853L72.7949 142.403Z" fill="#212529"/>
<path fill-rule="evenodd" clip-rule="evenodd" d="M59.7736 151.251L41.4573 132.986L41.8468 132.598L60.163 150.863L59.7736 151.251Z" fill="#212529"/>
<path fill-rule="evenodd" clip-rule="evenodd" d="M41.8468 151.251L60.163 132.986L59.7736 132.598L41.4573 150.863L41.8468 151.251Z" fill="#212529"/>
<path fill-rule="evenodd" clip-rule="evenodd" d="M56.0073 105.375C58.0229 105.375 59.6569 103.637 59.6569 101.493C59.6569 99.3493 58.0229 97.6113 56.0073 97.6113C53.9917 97.6113 52.3577 99.3493 52.3577 101.493C52.3577 103.637 53.9917 105.375 56.0073 105.375ZM56.0073 104.825C57.6877 104.825 59.1069 103.366 59.1069 101.493C59.1069 99.6206 57.6877 98.1613 56.0073 98.1613C54.3269 98.1613 52.9077 99.6206 52.9077 101.493C52.9077 103.366 54.3269 104.825 56.0073 104.825Z" fill="#212529"/>
<path d="M36.2993 115.566C36.2993 117.71 34.6653 119.448 32.6496 119.448C30.634 119.448 29 117.71 29 115.566C29 113.422 30.634 111.684 32.6496 111.684C34.6653 111.684 36.2993 113.422 36.2993 115.566Z" fill="#212529"/>
<path d="M328.513 226.689C330.529 226.689 332.163 224.951 332.163 222.807C332.163 220.663 330.529 218.925 328.513 218.925C326.498 218.925 324.864 220.663 324.864 222.807C324.864 224.951 326.498 226.689 328.513 226.689Z" fill="#212529"/>
<path fill-rule="evenodd" clip-rule="evenodd" d="M323.891 247.07C323.891 250.018 321.494 252.408 318.538 252.408C315.581 252.408 313.185 250.018 313.185 247.07C313.185 244.122 315.581 241.732 318.538 241.732C321.494 241.732 323.891 244.122 323.891 247.07ZM323.341 247.07C323.341 249.713 321.192 251.858 318.538 251.858C315.884 251.858 313.735 249.713 313.735 247.07C313.735 244.427 315.884 242.282 318.538 242.282C321.192 242.282 323.341 244.427 323.341 247.07Z" fill="#212529"/>
<path fill-rule="evenodd" clip-rule="evenodd" d="M72.6351 122.845V101.493H73.1851V122.845H72.6351Z" fill="#212529"/>
<path fill-rule="evenodd" clip-rule="evenodd" d="M81.554 112.451L64.0358 112.404L64.0372 111.854L81.5555 111.901L81.554 112.451Z" fill="#212529"/>
</g>
<defs>
<clipPath id="clip0_219_16544">
<rect width="326" height="245" fill="white" transform="translate(29 18)"/>
</clipPath>
</defs>
</svg>
