<svg width="384" height="280" viewBox="0 0 384 280" fill="none" xmlns="http://www.w3.org/2000/svg">
<g clip-path="url(#clip0_219_16542)">
<g clip-path="url(#clip1_219_16542)">
<path fill-rule="evenodd" clip-rule="evenodd" d="M297.41 64.935V44.301H297.99V64.935H297.41Z" fill="#212529"/>
<path fill-rule="evenodd" clip-rule="evenodd" d="M306.175 54.9152L288.999 54.8694L289.001 54.2889L306.176 54.3346L306.175 54.9152Z" fill="#212529"/>
<path fill-rule="evenodd" clip-rule="evenodd" d="M77.0325 243.942V197.301H77.613V243.942H77.0325Z" fill="#212529"/>
<path fill-rule="evenodd" clip-rule="evenodd" d="M96.6447 221.122L57.9992 221.019L58.0007 220.439L96.6463 220.542L96.6447 221.122Z" fill="#212529"/>
<path fill-rule="evenodd" clip-rule="evenodd" d="M85.1215 228.947L68.9591 212.767L69.3694 212.356L85.5317 228.537L85.1215 228.947Z" fill="#212529"/>
<path fill-rule="evenodd" clip-rule="evenodd" d="M69.3694 228.947L85.5317 212.767L85.1215 212.356L68.9591 228.537L69.3694 228.947Z" fill="#212529"/>
<path fill-rule="evenodd" clip-rule="evenodd" d="M278 34.3099C280.209 34.3099 282 32.5171 282 30.3055C282 28.0939 280.209 26.301 278 26.301C275.791 26.301 274 28.0939 274 30.3055C274 32.5171 275.791 34.3099 278 34.3099ZM278 33.7294C279.888 33.7294 281.419 32.1971 281.419 30.3055C281.419 28.4139 279.888 26.8816 278 26.8816C276.112 26.8816 274.581 28.4139 274.581 30.3055C274.581 32.1971 276.112 33.7294 278 33.7294Z" fill="#212529"/>
<path d="M95.1527 187.88C95.1527 189.305 93.9993 190.46 92.5764 190.46C91.1535 190.46 90 189.305 90 187.88C90 186.456 91.1535 185.301 92.5764 185.301C93.9993 185.301 95.1527 186.456 95.1527 187.88Z" fill="#212529"/>
<path d="M109.829 99.4117C109.829 51.8944 148.349 13.3738 195.867 13.3738C243.384 13.3738 281.905 51.8943 281.905 99.4117V261.743C281.905 263.731 280.293 265.342 278.306 265.342H113.427C111.44 265.342 109.829 263.731 109.829 261.743V99.4117Z" fill="#212529"/>
<path fill-rule="evenodd" clip-rule="evenodd" d="M282.468 99.4117V261.743C282.468 264.042 280.604 265.905 278.306 265.905H113.427C111.129 265.905 109.266 264.042 109.266 261.743V99.4117C109.266 51.5832 148.038 12.8105 195.867 12.8105C243.695 12.8105 282.468 51.5832 282.468 99.4117ZM195.867 13.3738C148.349 13.3738 109.829 51.8944 109.829 99.4117V261.743C109.829 263.731 111.44 265.342 113.427 265.342H278.306C280.293 265.342 281.904 263.731 281.904 261.743V99.4117C281.904 51.8943 243.384 13.3738 195.867 13.3738Z" fill="#212529"/>
<g clip-path="url(#clip2_219_16542)">
<path fill-rule="evenodd" clip-rule="evenodd" d="M197.16 164.041C208.629 164.041 217.925 154.744 217.925 143.277C217.925 131.809 208.629 122.513 197.16 122.513C185.692 122.513 176.396 131.809 176.396 143.277C176.396 154.744 185.692 164.041 197.16 164.041ZM197.16 170.962C212.451 170.962 224.847 158.567 224.847 143.277C224.847 127.986 212.451 115.591 197.16 115.591C181.87 115.591 169.474 127.986 169.474 143.277C169.474 158.567 181.87 170.962 197.16 170.962Z" fill="#FF6A75"/>
<path fill-rule="evenodd" clip-rule="evenodd" d="M197.16 150.198C200.983 150.198 204.082 147.099 204.082 143.277C204.082 139.454 200.983 136.355 197.16 136.355C193.338 136.355 190.239 139.454 190.239 143.277C190.239 147.099 193.338 150.198 197.16 150.198ZM197.16 157.119C204.806 157.119 211.004 150.922 211.004 143.277C211.004 135.631 204.806 129.434 197.16 129.434C189.515 129.434 183.317 135.631 183.317 143.277C183.317 150.922 189.515 157.119 197.16 157.119Z" fill="#FF6A75"/>
<path fill-rule="evenodd" clip-rule="evenodd" d="M224.847 112.323C233.343 119.927 238.69 130.977 238.69 143.277C238.69 166.212 220.096 184.805 197.16 184.805C174.224 184.805 155.631 166.212 155.631 143.277C155.631 130.977 160.978 119.927 169.474 112.323V101.748C169.474 86.4583 181.87 74.0631 197.16 74.0631C212.451 74.0631 224.847 86.4583 224.847 101.748V112.323ZM178.126 106.357C183.828 103.412 190.3 101.748 197.16 101.748C204.021 101.748 210.493 103.412 216.195 106.357V101.748C216.195 91.2365 207.673 82.7148 197.16 82.7148C186.648 82.7148 178.126 91.2365 178.126 101.748V106.357ZM231.768 143.277C231.768 162.389 216.274 177.883 197.16 177.883C178.047 177.883 162.553 162.389 162.553 143.277C162.553 124.164 178.047 108.67 197.16 108.67C216.274 108.67 231.768 124.164 231.768 143.277Z" fill="#FF6A75"/>
</g>
<path fill-rule="evenodd" clip-rule="evenodd" d="M222.638 66.3009V29.5596H223.201V66.3009H222.638Z" fill="white"/>
<path fill-rule="evenodd" clip-rule="evenodd" d="M238.327 48.3784L207.51 48.2965L207.511 47.7332L238.329 47.815L238.327 48.3784Z" fill="white"/>
<path fill-rule="evenodd" clip-rule="evenodd" d="M229.102 54.5249L216.213 41.779L216.614 41.3828L229.502 54.1288L229.102 54.5249Z" fill="white"/>
<path fill-rule="evenodd" clip-rule="evenodd" d="M216.614 54.5249L229.502 41.779L229.102 41.3828L216.213 54.1288L216.614 54.5249Z" fill="white"/>
<path fill-rule="evenodd" clip-rule="evenodd" d="M265.939 152.721V127.881H266.503V152.721H265.939Z" fill="white"/>
<path fill-rule="evenodd" clip-rule="evenodd" d="M276.531 140.592L255.637 140.536L255.639 139.973L276.532 140.028L276.531 140.592Z" fill="white"/>
<path fill-rule="evenodd" clip-rule="evenodd" d="M127.685 177.042V160.483H128.249V177.042H127.685Z" fill="white"/>
<path fill-rule="evenodd" clip-rule="evenodd" d="M134.668 169.049L121.087 169.013L121.089 168.45L134.669 168.486L134.668 169.049Z" fill="white"/>
<path d="M184.58 54.3988C184.58 56.2413 183.071 57.7395 181.205 57.7395C179.339 57.7395 177.83 56.2413 177.83 54.3988C177.83 52.5562 179.339 51.0581 181.205 51.0581C183.071 51.0581 184.58 52.5562 184.58 54.3988ZM272.855 103.56C272.855 105.402 271.346 106.9 269.48 106.9C267.614 106.9 266.105 105.402 266.105 103.56C266.105 101.717 267.614 100.219 269.48 100.219C271.346 100.219 272.855 101.717 272.855 103.56ZM145.714 185.063C145.714 186.906 144.206 188.404 142.339 188.404C140.473 188.404 138.965 186.906 138.965 185.063C138.965 183.221 140.473 181.723 142.339 181.723C144.206 181.723 145.714 183.221 145.714 185.063Z" fill="white" stroke="white" stroke-width="0.563343"/>
<path d="M109.317 230.101H282.417V262.352C282.417 264.339 280.806 265.95 278.818 265.95H112.915C110.928 265.95 109.317 264.339 109.317 262.352V230.101Z" fill="white"/>
<path fill-rule="evenodd" clip-rule="evenodd" d="M281.853 230.664H109.88V262.352C109.88 264.028 111.239 265.387 112.915 265.387H278.818C280.494 265.387 281.853 264.028 281.853 262.352V230.664ZM109.317 230.101V262.352C109.317 264.339 110.928 265.95 112.915 265.95H278.818C280.806 265.95 282.417 264.339 282.417 262.352V230.101H109.317Z" fill="#212529"/>
<path d="M141.33 197.038C141.33 196.044 142.136 195.239 143.13 195.239H282.417V230.486H141.33V197.038Z" fill="white"/>
<path fill-rule="evenodd" clip-rule="evenodd" d="M281.853 195.802H143.13C142.447 195.802 141.894 196.355 141.894 197.038V229.922H281.853V195.802ZM143.13 195.239C142.136 195.239 141.33 196.044 141.33 197.038V230.486H282.417V195.239H143.13Z" fill="#212529"/>
<path d="M171.983 162.499C171.983 161.505 172.789 160.699 173.782 160.699H282.417V195.72H171.983V162.499Z" fill="white"/>
<path fill-rule="evenodd" clip-rule="evenodd" d="M281.853 161.263H173.782C173.1 161.263 172.546 161.816 172.546 162.499V195.157H281.853V161.263ZM173.782 160.699C172.789 160.699 171.983 161.505 171.983 162.499V195.72H282.417V160.699H173.782Z" fill="#212529"/>
<path d="M249.543 161.476H282.417V261.279C282.417 263.902 280.88 265.95 278.308 265.438H183.797V230.081H216.67V195.264H249.543V161.476Z" fill="#212529"/>
<path fill-rule="evenodd" clip-rule="evenodd" d="M174.269 161.26L282.44 161.001L282.442 161.565L174.27 161.823L174.269 161.26Z" fill="white"/>
</g>
</g>
<defs>
<clipPath id="clip0_219_16542">
<rect width="384" height="280" fill="white"/>
</clipPath>
<clipPath id="clip1_219_16542">
<rect width="384" height="280" fill="white"/>
</clipPath>
<clipPath id="clip2_219_16542">
<rect width="110.745" height="110.742" fill="white" transform="translate(141.788 74.0631)"/>
</clipPath>
</defs>
</svg>
