<svg width="384" height="280" viewBox="0 0 384 280" fill="none" xmlns="http://www.w3.org/2000/svg">
<g clip-path="url(#clip0_219_16543)">
<path fill-rule="evenodd" clip-rule="evenodd" d="M79.8497 128.5C81.3358 128.5 82.5406 129.705 82.5406 131.191V144.208H174.099C175.584 144.208 176.789 145.412 176.789 146.898V159.916H176.791V175.624H192.071V160.345H192.068V146.898C192.068 145.412 193.273 144.208 194.758 144.208H268.346C269.295 144.208 270.129 144.699 270.608 145.441V144.208H346.888C348.373 144.208 349.577 145.412 349.577 146.897V157.654C349.577 158.603 349.086 159.437 348.344 159.916H349.579V176.053H348.344C349.086 176.532 349.577 177.366 349.577 178.315V207.054H378.313C379.799 207.054 381.003 208.258 381.003 209.744V220.499C381.003 221.985 379.799 223.19 378.313 223.19H349.582V236.17C349.582 237.656 348.378 238.86 346.893 238.86H318.16V251.877C318.16 253.363 316.956 254.568 315.47 254.568H304.715C303.229 254.568 302.024 253.363 302.024 251.877V238.86H271.036V251.877C271.036 253.363 269.832 254.568 268.346 254.568H257.591C256.105 254.568 254.9 253.363 254.9 251.877V238.86L37.6824 238.86C36.1971 238.86 34.993 237.656 34.993 236.17L34.993 222.723H66.4142V207.469H21.9709C20.4848 207.469 19.2801 206.264 19.2801 204.778V191.761H6.26293C4.77683 191.761 3.57211 190.556 3.57211 189.07V178.315C3.57211 176.829 4.77683 175.624 6.26293 175.624H19.2823V162.607C19.2823 161.121 20.487 159.916 21.9731 159.916H34.988V146.897C34.988 145.412 36.1921 144.208 37.6774 144.208H66.4041V131.191C66.4041 129.705 67.6088 128.5 69.0949 128.5H79.8497ZM69.0949 128.928H79.8497C81.0992 128.928 82.1121 129.941 82.1121 131.191V144.208H66.8325V131.191C66.8325 129.941 67.8454 128.928 69.0949 128.928ZM333.446 238.431V223.19H318.166L318.166 238.431H333.446ZM333.451 222.723V207.482H318.171V222.723H333.451ZM349.159 222.723H333.879V207.482H349.159V222.723ZM333.874 238.431H346.893C348.141 238.431 349.154 237.419 349.154 236.17V223.19H333.874L333.874 238.431ZM317.743 207.482V222.723H302.463V207.482H317.743ZM317.737 223.19V238.431H302.458V223.19H317.737ZM302.029 223.19V238.431H286.75L286.75 223.19H302.029ZM302.035 222.723V207.482H286.755V222.723H302.035ZM270.613 238.431V223.19H255.334L255.334 238.431H270.613ZM270.613 222.723L270.619 222.723V207.482H255.339V222.723L270.613 222.723ZM286.327 222.723H271.047V207.482H286.327V222.723ZM271.042 238.431H286.321V223.19H271.042L271.042 238.431ZM254.911 207.482V222.723H239.631V207.482H254.911ZM254.905 223.19V238.431H239.626L239.626 223.19H254.905ZM239.197 238.431V223.19H223.918L223.918 238.431H239.197ZM239.197 222.723L239.203 222.723V207.482H223.923V222.723L239.197 222.723ZM223.49 223.19V238.431H208.21V223.19L223.49 223.19ZM207.781 222.723L207.787 222.723V207.482H192.507V222.723L207.781 222.723ZM223.495 222.723H208.215V207.482H223.495V222.723ZM207.781 238.431H192.502L192.502 223.19L207.781 223.19V238.431ZM176.794 223.19H192.073V238.431H176.794L176.794 223.19ZM176.365 238.431V223.19H161.086L161.086 238.431H176.365ZM176.371 222.723V207.482H161.091V222.723H176.371ZM192.079 222.723H176.799V207.482H192.079V222.723ZM160.663 207.482V222.723H145.383V207.482H160.663ZM160.657 223.19V238.431H145.378V223.19H160.657ZM144.949 222.723L144.955 222.723V207.482H129.675V222.723L144.949 222.723ZM129.67 223.19V238.431H144.949V223.19H129.67ZM129.246 207.482V222.723H113.967V207.482H129.246ZM129.241 223.19V238.431H113.962V223.19H129.241ZM113.538 222.723V207.482H98.2591V222.723H113.538ZM98.2539 223.19V238.431H113.533V223.19H98.2539ZM97.8305 207.482V222.723H82.5509V207.482H97.8305ZM97.8251 223.19V238.431H82.5458V223.19L97.8251 223.19ZM82.1222 222.723V207.482H66.8427V222.723H82.1222ZM82.1171 238.431H66.8376L66.8376 223.19H82.1171V238.431ZM66.4092 223.152V238.431H51.1296V223.152H66.4092ZM364.867 207.482H349.587V222.762H364.867V207.482ZM365.295 222.762H378.313C379.562 222.762 380.575 221.749 380.575 220.499V209.744C380.575 208.495 379.562 207.482 378.313 207.482H365.295V222.762ZM35.4165 207.04L35.4166 191.761H50.696L50.6961 207.04H35.4165ZM34.9881 191.761H19.7086V204.778C19.7086 206.027 20.7214 207.04 21.9709 207.04H34.9881L34.9881 191.761ZM66.4041 207.04H51.1245L51.1246 191.761H66.4041V207.04ZM66.8325 207.04H82.1121L82.112 191.761L66.8325 191.761V207.04ZM97.8201 207.04H82.5405V191.761H97.8201V207.04ZM129.236 207.04H113.957V191.761L129.236 191.761L129.236 207.04ZM113.528 207.04H98.2487V191.761L113.528 191.761L113.528 207.04ZM129.665 207.04H144.944L144.944 191.761L129.665 191.761V207.04ZM160.652 207.04H145.373V191.761L160.652 191.761L160.652 207.04ZM161.081 207.04H176.36L176.36 191.761L161.081 191.761V207.04ZM192.068 207.04H176.789V191.761H192.068V207.04ZM223.484 207.04H208.205V191.761L223.484 191.761L223.484 207.04ZM207.776 207.04H192.497V191.761L207.776 191.761L207.776 207.04ZM223.913 207.04H239.192L239.192 191.761L223.913 191.761V207.04ZM254.9 207.04H239.621V191.761L254.9 191.761L254.9 207.04ZM255.329 207.04H270.608V191.761H255.329V207.04ZM286.745 207.04H302.025L302.025 191.761L286.745 191.761V207.04ZM286.317 191.761L271.037 191.761V207.04H286.317L286.317 191.761ZM317.733 207.04H302.453V191.761L317.732 191.761L317.733 207.04ZM318.161 207.04H333.44L333.44 191.761L318.161 191.761V207.04ZM349.148 207.04H333.869V191.761H349.148V207.04ZM34.9881 191.332H19.7086V176.053H34.9881V191.332ZM19.2801 191.332V176.052H6.26293C5.01347 176.052 4.00059 177.065 4.00059 178.315V189.07C4.00059 190.319 5.01347 191.332 6.26293 191.332H19.2801ZM19.7108 175.624V162.607C19.7108 161.357 20.7237 160.345 21.9731 160.345H34.9903V175.624H19.7108ZM35.4166 191.332V176.053H50.696V191.332H35.4166ZM66.4041 191.332H51.1246V176.053H66.4041L66.4041 191.332ZM50.6984 160.345V175.624H35.4188V160.345H50.6984ZM51.1269 175.624V160.345H66.4064V175.624H51.1269ZM66.8325 176.053V191.332H82.1121L82.112 176.053H66.8325ZM97.8201 191.332H82.5405V176.053H97.8201V191.332ZM82.1145 160.345V175.624H66.8349V160.345H82.1145ZM82.5429 175.624V160.345L97.8225 160.345L97.8225 175.624H82.5429ZM129.236 191.332H113.957V176.053H129.236L129.236 191.332ZM113.53 160.345L113.531 175.624H98.251V160.345L113.53 160.345ZM98.2487 176.053V191.332H113.528L113.528 176.053H98.2487ZM113.959 175.624V160.345H129.239V175.624H113.959ZM129.665 191.332H144.944L144.944 176.053H129.665V191.332ZM160.652 191.332H145.373V176.052L145.375 176.053H160.652L160.652 191.332ZM144.947 160.345V175.624L144.944 175.624H129.667V160.345L144.947 160.345ZM145.375 175.624L160.652 175.624L160.655 175.624L160.655 160.345L145.375 160.345V175.624ZM161.081 191.332H176.36L176.36 176.053H161.083L161.081 176.052V191.332ZM192.068 191.332H176.789V176.052L176.791 176.053L192.068 176.052V191.332ZM176.363 160.345V175.624L176.36 175.624L161.083 175.624V160.345H176.363ZM97.8201 144.637H82.5406V159.916H97.8201V144.637ZM98.2486 159.916H113.528V144.637H98.2486V159.916ZM333.869 144.637H346.888C348.136 144.637 349.148 145.649 349.148 146.897V157.654C349.148 158.903 348.136 159.916 346.886 159.916H333.869V144.637ZM223.484 191.332H208.205V176.052L208.207 176.053H223.484L223.484 191.332ZM207.779 160.345L207.779 175.624L207.776 175.624L192.499 175.624V160.345L207.779 160.345ZM207.776 176.053L192.497 176.052V191.332H207.776L207.776 176.053ZM208.207 175.624L223.484 175.624L223.487 175.624L223.487 160.345L208.207 160.345V175.624ZM223.913 191.332H239.192L239.192 176.053H223.915L223.913 176.052V191.332ZM254.9 191.332H239.621V176.052L239.623 176.053H254.9L254.9 191.332ZM239.195 160.345V175.624L239.192 175.624L223.915 175.624V160.345H239.195ZM239.623 175.624L254.9 175.624L254.903 175.624V160.345L239.623 160.345V175.624ZM255.329 191.332H270.608L270.609 176.053H255.331L255.329 176.052V191.332ZM270.611 160.345V175.624L270.609 175.624L255.331 175.624V160.345H270.611ZM271.039 175.624L286.317 175.624L286.319 175.624L286.319 160.345L271.039 160.345V175.624ZM286.745 191.332H302.025L302.025 176.053H286.747L286.745 176.052V191.332ZM271.037 191.332H286.317L286.317 176.053H271.039L271.037 176.052V191.332ZM317.733 191.332H302.453V176.052L302.455 176.053H317.732L317.733 191.332ZM302.027 160.345L302.027 175.624L302.025 175.624L286.747 175.624V160.345L302.027 160.345ZM302.455 175.624L317.732 175.624L317.735 175.624L317.735 160.345L302.455 160.345V175.624ZM318.163 176.053L318.161 176.052V191.332H333.44L333.44 176.053H318.163ZM349.148 191.332H333.869V176.052L333.871 176.053H346.905C348.146 176.063 349.148 177.072 349.148 178.315V191.332ZM333.443 160.345L333.443 175.624L333.44 175.624L318.163 175.624V160.345L333.443 160.345ZM346.907 175.624L346.886 175.624L333.871 175.624V160.345H349.151V175.624H346.907ZM317.733 159.916L302.455 159.916L302.453 159.916V144.637H317.733V159.916ZM223.484 144.637H208.205V159.916H223.484V144.637ZM207.776 144.637H194.758C193.509 144.637 192.497 145.649 192.497 146.898V159.916H207.776V144.637ZM239.192 159.916H223.913V144.637H239.192V159.916ZM270.608 159.916H255.329V144.637H268.346C269.592 144.637 270.602 145.643 270.608 146.887L270.608 146.899V159.916ZM239.621 144.637H254.9V159.916H239.621V144.637ZM286.316 144.637H271.037V146.886L271.037 146.899L271.037 159.916H286.316V144.637ZM302.024 159.916H286.745V144.637H302.024V159.916ZM333.44 159.916H318.161V144.637H333.44V159.916ZM161.081 144.637H174.099C175.348 144.637 176.36 145.649 176.36 146.898V159.916H161.081V144.637ZM129.236 159.916H113.957V144.637H129.236V159.916ZM160.652 159.916H145.373V144.637H160.652V159.916ZM129.665 144.637H144.944V159.916H129.665V144.637ZM66.8325 144.637H82.1121V159.916H66.8325V144.637ZM66.404 144.637H51.1245V159.916H66.404V144.637ZM37.6774 144.637H50.696V159.916H35.4165V146.897C35.4165 145.649 36.4287 144.637 37.6774 144.637ZM50.7011 238.431H37.6824C36.4338 238.431 35.4215 237.419 35.4215 236.17L35.4215 223.152H50.7011V238.431ZM255.328 238.86V251.877C255.328 253.127 256.341 254.139 257.591 254.139H268.346C269.595 254.139 270.608 253.127 270.608 251.877V238.86H255.328ZM302.452 251.877V238.86H317.732V251.877C317.732 253.127 316.719 254.139 315.47 254.139H304.715C303.465 254.139 302.452 253.127 302.452 251.877Z" fill="#212529"/>
<ellipse cx="45.5158" cy="13.3261" rx="45.5158" ry="13.3261" transform="matrix(0.999984 -0.00561916 0.00560665 0.999984 53.6995 182.94)" fill="#212529"/>
<ellipse cx="45.5158" cy="13.3261" rx="45.5158" ry="13.3261" transform="matrix(0.999984 -0.00561916 0.00560665 0.999984 235.763 182.94)" fill="#212529"/>
<path fill-rule="evenodd" clip-rule="evenodd" d="M280.849 28.1858C280.849 29.6103 279.696 30.7651 278.273 30.7651C276.85 30.7651 275.696 29.6103 275.696 28.1858C275.696 26.7614 276.85 25.6066 278.273 25.6066C279.696 25.6066 280.849 26.7614 280.849 28.1858ZM279.843 28.1858C279.843 29.0539 279.14 29.7576 278.273 29.7576C277.406 29.7576 276.703 29.0539 276.703 28.1858C276.703 27.3178 277.406 26.6141 278.273 26.6141C279.14 26.6141 279.843 27.3178 279.843 28.1858Z" fill="#212529"/>
<path fill-rule="evenodd" clip-rule="evenodd" d="M278.273 32.6995C280.763 32.6995 282.781 30.6787 282.781 28.1858C282.781 25.693 280.763 23.6722 278.273 23.6722C275.783 23.6722 273.764 25.693 273.764 28.1858C273.764 30.6787 275.783 32.6995 278.273 32.6995ZM278.273 31.692C280.207 31.692 281.775 30.1222 281.775 28.1858C281.775 26.2494 280.207 24.6797 278.273 24.6797C276.339 24.6797 274.771 26.2494 274.771 28.1858C274.771 30.1222 276.339 31.692 278.273 31.692Z" fill="#212529"/>
<path fill-rule="evenodd" clip-rule="evenodd" d="M278.273 34.6339C281.83 34.6339 284.714 31.747 284.714 28.1858C284.714 24.6246 281.83 21.7377 278.273 21.7377C274.716 21.7377 271.832 24.6246 271.832 28.1858C271.832 31.747 274.716 34.6339 278.273 34.6339ZM278.273 33.6264C281.274 33.6264 283.707 31.1906 283.707 28.1858C283.707 25.1811 281.274 22.7453 278.273 22.7453C275.271 22.7453 272.838 25.1811 272.838 28.1858C272.838 31.1906 275.271 33.6264 278.273 33.6264Z" fill="#212529"/>
<path d="M244.935 87.9729C247.499 89.2993 250.664 88.7757 252.38 86.4549C253.648 84.7404 254.785 83.047 255.675 81.6637C256.923 79.7247 256.861 77.257 255.518 75.3827C248.133 65.0756 222.339 32.4846 191.438 32.4846C160.917 32.4846 135.023 64.279 127.164 74.9925C125.643 77.067 125.728 79.8408 127.306 81.8725C128.137 82.9415 129.116 84.1806 130.166 85.4659C131.99 87.6988 135.142 88.2303 137.713 86.9272C154.397 78.4741 171.659 73.7524 191.106 73.7524C210.688 73.7524 228.146 79.2859 244.935 87.9729Z" fill="white"/>
<path fill-rule="evenodd" clip-rule="evenodd" d="M251.914 86.1097C253.172 84.408 254.302 82.7255 255.187 81.3496C256.306 79.6108 256.25 77.4016 255.046 75.7208C251.367 70.5867 243.105 59.9053 231.923 50.513C220.731 41.1125 206.688 33.0651 191.438 33.0651C176.375 33.0651 162.401 40.9162 151.172 50.169C139.953 59.4138 131.548 69.9984 127.633 75.3358C126.27 77.1937 126.34 79.682 127.765 81.5163C128.593 82.5825 129.569 83.8177 130.616 85.0987C132.252 87.102 135.101 87.6002 137.451 86.4093C154.206 77.92 171.557 73.1719 191.106 73.1719C210.805 73.1719 228.355 78.7399 245.202 87.4573C247.547 88.671 250.39 88.1708 251.914 86.1097ZM252.38 86.4549C250.664 88.7757 247.499 89.2993 244.935 87.9729C228.146 79.2859 210.688 73.7524 191.106 73.7524C171.659 73.7524 154.397 78.4741 137.713 86.9272C135.142 88.2303 131.99 87.6988 130.166 85.4659C129.116 84.1806 128.137 82.9415 127.306 81.8725C125.728 79.8408 125.643 77.067 127.164 74.9925C135.023 64.279 160.917 32.4846 191.438 32.4846C222.339 32.4846 248.133 65.0756 255.518 75.3827C256.861 77.257 256.923 79.7247 255.675 81.6637C254.785 83.047 253.648 84.7404 252.38 86.4549Z" fill="#212529"/>
<path d="M208.117 67.9359C211.7 67.9359 214.779 65.8397 216.221 62.8083C218.184 66.4209 219.388 70.5052 219.623 74.8486C210.328 72.6581 200.713 71.5323 190.925 71.5323C181.319 71.5323 171.88 72.6165 162.747 74.7272C163.619 59.7645 176.017 47.8983 191.181 47.8983C195.795 47.8983 200.152 49.0029 204.007 50.9553C201.117 52.4504 199.136 55.4612 199.136 58.9447C199.136 63.913 203.155 67.9359 208.117 67.9359Z" fill="#212529"/>
<path d="M255.956 199.49C251.706 199.49 248.258 196.038 248.258 191.784C248.258 160.052 222.474 134.24 190.778 134.24C159.082 134.24 133.299 160.052 133.299 191.784C133.299 196.038 129.85 199.49 125.6 199.49C121.351 199.49 117.902 196.038 117.902 191.784C117.902 151.554 150.594 118.826 190.778 118.826C230.963 118.826 263.654 151.554 263.654 191.784C263.654 196.038 260.205 199.49 255.956 199.49Z" fill="#C1ED75"/>
<path fill-rule="evenodd" clip-rule="evenodd" d="M248.838 191.784C248.838 195.718 252.028 198.91 255.956 198.91C259.884 198.91 263.073 195.718 263.073 191.784C263.073 151.874 230.641 119.407 190.778 119.407C150.915 119.407 118.483 151.874 118.483 191.784C118.483 195.718 121.672 198.91 125.6 198.91C129.529 198.91 132.718 195.718 132.718 191.784C132.718 159.732 158.761 133.659 190.778 133.659C222.795 133.659 248.838 159.732 248.838 191.784ZM248.258 191.784C248.258 196.038 251.706 199.49 255.956 199.49C260.205 199.49 263.654 196.038 263.654 191.784C263.654 151.554 230.963 118.826 190.778 118.826C150.594 118.826 117.902 151.554 117.902 191.784C117.902 196.038 121.351 199.49 125.6 199.49C129.85 199.49 133.299 196.038 133.299 191.784C133.299 160.052 159.082 134.24 190.778 134.24C222.474 134.24 248.258 160.052 248.258 191.784Z" fill="#212529"/>
<path d="M307.277 199.49C303.028 199.49 299.579 196.038 299.579 191.784C299.579 131.722 250.773 82.8617 190.778 82.8617C130.784 82.8617 81.9776 131.722 81.9776 191.784C81.9776 196.038 78.5289 199.49 74.2795 199.49C70.0301 199.49 66.5813 196.038 66.5813 191.784C66.5813 158.573 79.4988 127.35 102.958 103.865C126.417 80.3801 157.604 67.4482 190.778 67.4482C223.952 67.4482 255.14 80.3801 278.599 103.865C302.058 127.35 314.975 158.573 314.975 191.784C314.975 196.038 311.526 199.49 307.277 199.49Z" fill="#C1ED75"/>
<path fill-rule="evenodd" clip-rule="evenodd" d="M300.159 191.784C300.159 195.718 303.349 198.91 307.277 198.91C311.205 198.91 314.395 195.718 314.395 191.784C314.395 158.726 301.538 127.651 278.188 104.275C254.838 80.8993 223.798 68.0287 190.778 68.0287C157.758 68.0287 126.718 80.8993 103.368 104.275C80.0184 127.651 67.1619 158.726 67.1619 191.784C67.1619 195.718 70.3513 198.91 74.2795 198.91C78.2076 198.91 81.3971 195.718 81.3971 191.784C81.3971 131.402 130.463 82.2812 190.778 82.2812C251.094 82.2812 300.159 131.402 300.159 191.784ZM299.579 191.784C299.579 196.038 303.028 199.49 307.277 199.49C311.526 199.49 314.975 196.038 314.975 191.784C314.975 158.573 302.058 127.35 278.599 103.865C255.14 80.3801 223.952 67.4482 190.778 67.4482C157.604 67.4482 126.417 80.3801 102.958 103.865C79.4988 127.35 66.5813 158.573 66.5813 191.784C66.5813 196.038 70.0301 199.49 74.2795 199.49C78.5289 199.49 81.9776 196.038 81.9776 191.784C81.9776 131.722 130.784 82.8617 190.778 82.8617C250.773 82.8617 299.579 131.722 299.579 191.784Z" fill="#212529"/>
<path d="M281.616 199.49C277.367 199.49 273.918 196.038 273.918 191.784C273.918 145.887 236.623 108.551 190.778 108.551C144.933 108.551 107.638 145.887 107.638 191.784C107.638 196.038 104.189 199.49 99.9399 199.49C95.6905 199.49 92.2418 196.038 92.2418 191.784C92.2418 137.389 136.445 93.1374 190.778 93.1374C245.112 93.1374 289.314 137.389 289.314 191.784C289.314 196.038 285.866 199.49 281.616 199.49Z" fill="#C1ED75"/>
<path fill-rule="evenodd" clip-rule="evenodd" d="M274.499 191.784C274.499 195.718 277.688 198.91 281.616 198.91C285.544 198.91 288.734 195.718 288.734 191.784C288.734 137.709 244.79 93.7179 190.778 93.7179C136.766 93.7179 92.8223 137.709 92.8223 191.784C92.8223 195.718 96.0118 198.91 99.9399 198.91C103.868 198.91 107.058 195.718 107.058 191.784C107.058 145.567 144.612 107.97 190.778 107.97C236.944 107.97 274.499 145.567 274.499 191.784ZM273.918 191.784C273.918 196.038 277.367 199.49 281.616 199.49C285.866 199.49 289.314 196.038 289.314 191.784C289.314 137.389 245.112 93.1374 190.778 93.1374C136.445 93.1374 92.2418 137.389 92.2418 191.784C92.2418 196.038 95.6905 199.49 99.9399 199.49C104.189 199.49 107.638 196.038 107.638 191.784C107.638 145.887 144.933 108.551 190.778 108.551C236.623 108.551 273.918 145.887 273.918 191.784Z" fill="#212529"/>
<path fill-rule="evenodd" clip-rule="evenodd" d="M323.181 129.206V108.572H323.762V129.206H323.181Z" fill="#212529"/>
<path fill-rule="evenodd" clip-rule="evenodd" d="M331.946 119.186L314.77 119.141L314.772 118.56L331.948 118.606L331.946 119.186Z" fill="#212529"/>
<path fill-rule="evenodd" clip-rule="evenodd" d="M72.732 60.6413V14H73.3125V60.6413H72.732Z" fill="#212529"/>
<path fill-rule="evenodd" clip-rule="evenodd" d="M92.3442 37.8213L53.6987 37.7184L53.7002 37.1378L92.3458 37.2407L92.3442 37.8213Z" fill="#212529"/>
<path fill-rule="evenodd" clip-rule="evenodd" d="M80.8209 45.6462L64.6586 29.4659L65.0689 29.0551L81.2312 45.2355L80.8209 45.6462Z" fill="#212529"/>
<path fill-rule="evenodd" clip-rule="evenodd" d="M65.0689 45.6462L81.2312 29.4659L80.8209 29.0551L64.6586 45.2355L65.0689 45.6462Z" fill="#212529"/>
<path d="M325.935 83.6395C325.935 85.064 324.782 86.2187 323.359 86.2187C321.936 86.2187 320.783 85.064 320.783 83.6395C320.783 82.215 321.936 81.0602 323.359 81.0602C324.782 81.0602 325.935 82.215 325.935 83.6395Z" fill="#212529"/>
<path fill-rule="evenodd" clip-rule="evenodd" d="M304.466 99.9747C307.074 99.9747 309.189 97.8576 309.189 95.2461C309.189 92.6345 307.074 90.5175 304.466 90.5175C301.857 90.5175 299.742 92.6345 299.742 95.2461C299.742 97.8576 301.857 99.9747 304.466 99.9747ZM304.466 99.3941C306.753 99.3941 308.609 97.5376 308.609 95.2461C308.609 92.9545 306.753 91.098 304.466 91.098C302.178 91.098 300.323 92.9545 300.323 95.2461C300.323 97.5376 302.178 99.3941 304.466 99.3941Z" fill="#212529"/>
<path d="M64.8637 121.468C64.8637 122.893 63.7103 124.048 62.2874 124.048C60.8645 124.048 59.711 122.893 59.711 121.468C59.711 120.044 60.8645 118.889 62.2874 118.889C63.7103 118.889 64.8637 120.044 64.8637 121.468Z" fill="#212529"/>
</g>
<defs>
<clipPath id="clip0_219_16543">
<rect width="384" height="280" fill="white"/>
</clipPath>
</defs>
</svg>
